<svg width="10" height="6" viewBox="0 0 10 6" fill="none" xmlns="http://www.w3.org/2000/svg">
<path d="M9.16671 0.641741C9.01057 0.486532 8.79936 0.399414 8.57921 0.399414C8.35905 0.399414 8.14784 0.486532 7.99171 0.641741L5.00004 3.59174L2.05004 0.641741C1.8939 0.486532 1.68269 0.399414 1.46254 0.399414C1.24238 0.399414 1.03117 0.486532 0.875039 0.641741C0.796932 0.71921 0.734936 0.811378 0.692629 0.912927C0.650322 1.01448 0.62854 1.1234 0.62854 1.23341C0.62854 1.34342 0.650322 1.45234 0.692629 1.55389C0.734936 1.65544 0.796932 1.74761 0.875039 1.82507L4.40837 5.35841C4.48584 5.43651 4.57801 5.49851 4.67956 5.54082C4.78111 5.58312 4.89003 5.60491 5.00004 5.60491C5.11005 5.60491 5.21897 5.58312 5.32052 5.54082C5.42207 5.49851 5.51424 5.43651 5.59171 5.35841L9.16671 1.82507C9.24481 1.74761 9.30681 1.65544 9.34912 1.55389C9.39142 1.45234 9.41321 1.34342 9.41321 1.23341C9.41321 1.1234 9.39142 1.01448 9.34912 0.912927C9.30681 0.811378 9.24481 0.71921 9.16671 0.641741Z" fill="#3A3A3A"/>
</svg>
