<svg width="10" height="10" viewBox="0 0 10 10" fill="none" xmlns="http://www.w3.org/2000/svg">
<path d="M9.08337 4.41658H5.58337V0.916585C5.58337 0.761876 5.52191 0.613503 5.41252 0.504106C5.30312 0.39471 5.15475 0.333252 5.00004 0.333252C4.84533 0.333252 4.69696 0.39471 4.58756 0.504106C4.47817 0.613503 4.41671 0.761876 4.41671 0.916585V4.41658H0.916707C0.761998 4.41658 0.613625 4.47804 0.504228 4.58744C0.394832 4.69684 0.333374 4.84521 0.333374 4.99992C0.333374 5.15463 0.394832 5.303 0.504228 5.4124C0.613625 5.52179 0.761998 5.58325 0.916707 5.58325H4.41671V9.08325C4.41671 9.23796 4.47817 9.38633 4.58756 9.49573C4.69696 9.60513 4.84533 9.66658 5.00004 9.66658C5.15475 9.66658 5.30312 9.60513 5.41252 9.49573C5.52191 9.38633 5.58337 9.23796 5.58337 9.08325V5.58325H9.08337C9.23808 5.58325 9.38646 5.52179 9.49585 5.4124C9.60525 5.303 9.66671 5.15463 9.66671 4.99992C9.66671 4.84521 9.60525 4.69684 9.49585 4.58744C9.38646 4.47804 9.23808 4.41658 9.08337 4.41658Z" fill="#111563" stroke="#111563" stroke-width="0.5"/>
</svg>
